<?xml version="1.0" encoding="UTF-8"?>
<svg width="205px" height="201px" viewBox="0 0 205 201" version="1.1" xmlns="http://www.w3.org/2000/svg" xmlns:xlink="http://www.w3.org/1999/xlink">
    <!-- Generator: Sketch 54.1 (76490) - https://sketchapp.com -->
    <title>gear</title>
    <desc>Created with Sketch.</desc>
    <g id="Page-1" stroke="none" stroke-width="1" fill="none" fill-rule="evenodd" opacity="0.7">
        <g id="gear" fill="#FFFFFF" fill-rule="nonzero">
            <path d="M113.711,200.935 L92.163,200.935 C88.921,200.935 87.79,200.942 76.742,173.571 L68.21,170.103 C44.962,180.65 42.21,180.65 41.29,180.65 L39.511,180.65 L37.994,179.347 L22.719,164.402 C20.396,162.083 19.591,161.278 31.544,134.265 L28.065,126.034 C0,115.977 0,114.81 0,111.496 L0,90.37 C0,87.06 0,86.015 27.972,75.199 L31.451,66.95 C18.807,40.348 19.677,39.522 22.171,37.174 L38.598,21.069 L40.638,21.005 C43.118,21.005 52.319,24.362 68.009,30.986 L76.516,27.532 C86.758,0.054 88.015,0.058 91.246,0.058 L112.794,0.058 C116.022,0.058 117.157,0.062 128.205,27.44 L136.751,30.883 C159.963,20.35 162.751,20.35 163.678,20.35 L165.446,20.35 L166.963,21.631 L182.238,36.551 C184.561,38.895 185.355,39.697 173.402,66.721 L176.891,74.999 C204.992,85.013 204.992,86.176 204.992,89.497 L204.992,110.598 C204.992,113.83 204.992,114.968 176.984,125.79 L173.527,134.046 C186.107,160.533 185.276,161.363 182.921,163.736 L166.369,179.941 L164.318,179.998 C161.849,179.998 152.669,176.637 137.001,170.006 L128.444,173.463 C118.174,200.935 117.007,200.935 113.711,200.935 Z M94.403,192.213 L111.399,192.213 C113.349,188.237 117.565,177.697 120.94,168.618 L121.62,166.811 L137.095,160.562 L138.759,161.267 C147.982,165.2 158.883,169.559 163.131,170.898 L175.074,159.217 C173.557,155.012 168.958,144.723 164.81,136.044 L163.973,134.28 L170.376,118.995 L172.119,118.322 C181.435,114.736 192.229,110.309 196.262,108.29 L196.262,91.88 C192.182,89.962 181.431,85.871 172.166,82.586 L170.352,81.938 L163.907,66.638 L164.676,64.913 C168.641,55.966 173.051,45.412 174.464,41.16 L162.489,29.454 C158.624,30.803 147.801,35.441 138.672,39.607 L136.972,40.387 L121.497,34.149 L120.806,32.428 C117.148,23.298 112.603,12.712 110.553,8.793 L93.569,8.793 C91.608,12.758 87.406,23.302 84.039,32.378 L83.37,34.175 L67.938,40.445 L66.274,39.733 C57.03,35.807 46.107,31.455 41.845,30.117 L29.923,41.805 C31.419,46.003 36.032,56.285 40.166,64.964 L41.014,66.732 L34.579,82.01 L32.847,82.679 C23.546,86.261 12.77,90.685 8.736,92.696 L8.736,109.127 C12.816,111.052 23.556,115.154 32.815,118.453 L34.615,119.108 L41.061,134.357 L40.292,136.078 C36.327,145.018 31.921,155.558 30.504,159.802 L42.504,171.544 C46.358,170.184 57.167,165.546 66.307,161.376 L68.018,160.592 L83.461,166.869 L84.152,168.59 C87.821,177.723 92.352,188.291 94.403,192.213 Z M102.495,135.653 C82.736,135.653 66.646,119.881 66.646,100.494 C66.646,81.122 82.733,65.36 102.495,65.36 C122.243,65.36 138.294,81.125 138.294,100.494 C138.294,119.881 122.243,135.653 102.495,135.653 Z M102.495,74.09 C87.539,74.09 75.382,85.936 75.382,100.495 C75.382,115.064 87.536,126.921 102.495,126.921 C117.426,126.921 129.573,115.064 129.573,100.495 C129.569,85.936 117.426,74.09 102.495,74.09 Z" id="Shape"></path>
        </g>
    </g>
</svg>