<?xml version="1.0" encoding="UTF-8"?>
<svg width="404px" height="84px" viewBox="0 0 404 84" version="1.1" xmlns="http://www.w3.org/2000/svg" xmlns:xlink="http://www.w3.org/1999/xlink">
    <!-- Generator: Sketch 54.1 (76490) - https://sketchapp.com -->
    <title>logo-cyan-tm</title>
    <desc>Created with Sketch.</desc>
    <g id="Page-1" stroke="none" stroke-width="1" fill="none" fill-rule="evenodd">
        <g id="logo-cyan-tm" transform="translate(0.000000, -1.000000)" fill="#FFFFFF">
            <g id="logo-cyan" fill-rule="nonzero">
                <g id="icon---cyan" transform="translate(0.000000, 4.000000)">
                    <g id="icon">
                        <path d="M40,10 C56.542,10 70,23.458 70,40 C70,56.542 56.542,70 40,70 C23.458,70 10,56.542 10,40 C10,23.458 23.458,10 40,10 L40,10 Z M40,0 C17.909,0 0,17.908 0,40 C0,62.092 17.909,80 40,80 C62.092,80 80,62.092 80,40 C80,17.908 62.092,0 40,0 L40,0 Z" id="Shape"></path>
                        <path d="M48,44 C46.656,44 46,43.344 46,42 L46,38 C46,36.658 46.656,36 48,36 L61,36 C62.344,36 63,36.656 63,38 L63,40 C63,52.7024237 52.7024237,63 40,63 C33.8240659,63 28.0223649,60.5461724 23.7376378,56.2667043 C22.787,55.314 22.787,54.384 23.736,53.435 L27.979,49.192 C28.928,48.244 29.857,48.242 30.808,49.192 C33.23535,51.6181773 36.5035012,53 40,53 C45.7839629,53 50.6858182,49.2224695 52.3729744,44 L48,44 Z" id="Combined-Shape"></path>
                    </g>
                </g>
                <g id="type---pink" transform="translate(102.000000, 0.000000)">
                    <g id="diamond---pink" transform="translate(4.000000, 0.761519)">
                        <path d="M9.5514143,0.72878533 L17.2712147,8.44858569 C17.5757524,8.7531234 17.5757524,9.2468766 17.2712147,9.5514143 L9.5514143,17.2712147 C9.2468766,17.5757524 8.7531234,17.5757524 8.44858569,17.2712147 L0.72878533,9.5514143 C0.42424762,9.2468766 0.42424762,8.7531234 0.72878533,8.44858569 L8.44858569,0.72878533 C8.7531234,0.42424762 9.2468766,0.42424762 9.5514143,0.72878533 Z" id="diamond"></path>
                    </g>
                    <path d="M132.346,23.1695217 C143.77,23.1695217 153.22,32.7875217 153.22,45.2615217 C153.22,57.7355217 143.77,67.3535217 132.346,67.3535217 C125.72428,67.3535217 120.783399,64.6428413 117.60484,60.2336808 L117.60484,81.1715204 C117.60484,82.3895204 116.93284,83.0615204 115.71484,83.0615204 L110.42284,83.0615204 C109.20484,83.0615204 108.53284,82.3895204 108.53284,81.1715204 L108.53284,26.1515204 C108.53284,24.9335204 109.20484,24.2615204 110.42284,24.2615204 L115.71484,24.2615204 C116.93284,24.2615204 117.60484,24.9335204 117.60484,26.1515204 L117.60484,30.2893599 C120.783399,25.8801995 125.72428,23.1695191 132.346,23.1695191 L132.346,23.1695217 Z M130.876,58.7015217 C138.436,58.7015217 144.148,53.0735217 144.148,45.2615217 C144.148,37.4495217 138.436,31.8215217 130.876,31.8215217 C123.316,31.8215217 117.604,37.4495217 117.604,45.2615217 C117.604,53.0735217 123.316,58.7015217 130.876,58.7015217 Z M160.342,66.2615191 C159.124,66.2615191 158.452,65.5895191 158.452,64.3715191 L158.452,26.1515191 C158.452,24.9335191 159.124,24.2615191 160.342,24.2615191 L165.634,24.2615191 C166.852,24.2615191 167.524,24.9335191 167.524,26.1515191 L167.524,64.3715191 C167.524,65.5895191 166.852,66.2615191 165.634,66.2615191 L160.342,66.2615191 Z M206.524,63.9935191 C207.364,65.2535191 206.776,66.2615191 205.264,66.2615191 L199.762,66.2615191 C198.796,66.2615191 198.04,65.8415191 197.494,65.0015191 L189.304,52.1990788 L181.114,65.0015191 C180.568,65.8415191 179.812,66.2615191 178.846,66.2615191 L173.344,66.2615191 C171.832,66.2615191 171.244,65.2535191 172.084,63.9935191 L184.46644,44.6382392 L172.882,26.5295191 C172.042,25.2695191 172.63,24.2615191 174.142,24.2615191 L179.644,24.2615191 C180.61,24.2615191 181.366,24.6815191 181.912,25.5215191 L189.304,37.0765589 L196.696,25.5215191 C197.242,24.6815191 197.998,24.2615191 198.964,24.2615191 L204.466,24.2615191 C205.978,24.2615191 206.566,25.2695191 205.726,26.5295191 L194.14156,44.6382392 L206.524,63.9935191 Z M228.766,23.1695191 C241.324,23.1695191 249.556,33.2495191 249.556,45.3455191 C249.556,46.0595191 249.514,46.7315191 249.472,47.4035191 C249.346,48.6215191 248.59,49.1675191 247.456,49.1675191 L216.15592,49.1675191 C217.53604,56.0513188 222.658359,59.5835191 229.06,59.5835191 C233.05,59.5835191 236.368,57.9035191 238.174,55.5515191 C238.846,54.8375191 239.476,54.4175191 240.484,54.4175191 L245.86,54.3755191 C247.246,54.3755191 248.002,55.2155191 247.456,56.3915191 C244.39,63.2375191 237.502,67.3535191 228.934,67.3535191 C215.536,67.3535191 206.758,57.8615191 206.758,45.2615191 C206.758,32.8295191 215.62,23.1695191 228.766,23.1695191 Z M216.12148,41.6915191 L240.430239,41.6915191 C239.239959,34.5389196 234.131919,31.4435191 228.72484,31.4435191 C221.95108,31.4435191 217.35628,35.4074793 216.12148,41.6915191 Z M256.174,66.2615191 C254.956,66.2615191 254.284,65.5895191 254.284,64.3715191 L254.284,7.6715191 C254.284,6.4535191 254.956,5.7815191 256.174,5.7815191 L261.466,5.7815191 C262.684,5.7815191 263.356,6.4535191 263.356,7.6715191 L263.356,64.3715191 C263.356,65.5895191 262.684,66.2615191 261.466,66.2615191 L256.174,66.2615191 Z M278.668,36.0635191 C278.668,44.5055191 301.978,38.4155191 301.978,54.4595191 C301.978,62.7335191 294.754,67.3535191 285.472,67.3535191 C276.862,67.3535191 270.016,63.2375191 269.092,55.2575191 C268.966,53.9555191 269.722,53.2835191 270.94,53.2835191 L276.148,53.2835191 C277.282,53.2835191 277.744,53.9135191 278.164,54.9635191 C278.878,57.9875191 281.818,59.2055191 285.472,59.2055191 C289.882,59.2055191 292.906,57.6515191 292.906,54.4595191 C292.906,46.1015191 269.596,52.0655191 269.596,36.0635191 C269.596,27.8735191 276.82,23.1695191 285.472,23.1695191 C293.326,23.1695191 300.088,27.2855191 301.012,35.2655191 C301.138,36.5675191 300.382,37.2395191 299.164,37.2395191 L293.956,37.2395191 C292.822,37.2395191 292.36,36.6095191 291.94,35.5175191 C291.268,32.5355191 288.454,31.3175191 285.472,31.3175191 C281.692,31.3175191 278.668,32.8715191 278.668,36.0635191 Z" id="pixels"></path>
                    <path d="M15.352,24.2615191 C16.57,24.2615191 17.242,24.9335191 17.242,26.1515191 L17.242,67.9415191 C17.242,78.9035191 12.118,84.3215191 1.912,84.2375191 C0.694,84.2375191 0.022,83.4815191 0.022,82.3055191 L0.022,77.3495191 C0.022,76.1315191 0.694,75.5015191 1.912,75.4175191 C6.154,75.2915191 8.17,73.1075191 8.17,67.9415191 L8.17,26.1515191 C8.17,24.9335191 8.842,24.2615191 10.06,24.2615191 L15.352,24.2615191 Z M44.65,67.3535191 C32.344,67.3535191 22.474,57.7355191 22.474,45.2615191 C22.474,32.7875191 32.344,23.1695191 44.65,23.1695191 C56.956,23.1695191 66.826,32.7875191 66.826,45.2615191 C66.826,57.7355191 56.956,67.3535191 44.65,67.3535191 Z M44.65,58.5335191 C52.042,58.5335191 57.754,52.9055191 57.754,45.2615191 C57.754,37.6175191 52.042,31.9895191 44.65,31.9895191 C37.258,31.9895191 31.546,37.6175191 31.546,45.2615191 C31.546,52.9055191 37.258,58.5335191 44.65,58.5335191 Z M95.41,25.8155191 C95.746,24.7655191 96.502,24.2615191 97.552,24.2615191 L103.306,24.2615191 C104.65,24.2615191 105.322,25.0595191 104.86,26.4035191 L85.918,81.5495191 C85.582,82.5995191 84.784,83.0615191 83.734,83.0615191 L77.98,83.0615191 C76.636,83.0615191 75.964,82.2635191 76.426,80.9195191 L81.634,65.7575191 L66.136,26.4455191 C65.632,25.1435191 66.22,24.2615191 67.606,24.2615191 L73.318,24.2615191 C74.368,24.2615191 75.082,24.7235191 75.46,25.7315191 L86.17,53.1995191 L95.41,25.8155191 Z" id="joy"></path>
                </g>
            </g>
            <g id="TM" transform="translate(390.000000, 4.000000)" font-family="QanelasSoft-Regular, Qanelas Soft" font-size="9" font-weight="normal">
                <text>
                    <tspan x="0.1275" y="9">TM</tspan>
                </text>
            </g>
        </g>
    </g>
</svg>