<?xml version="1.0" encoding="UTF-8"?>
<svg width="520px" height="180px" viewBox="0 0 520 180" version="1.1" xmlns="http://www.w3.org/2000/svg" xmlns:xlink="http://www.w3.org/1999/xlink">
    <!-- Generator: Sketch 53.2 (72643) - https://sketchapp.com -->
    <title>logo-white</title>
    <desc>Created with Sketch.</desc>
    <g id="logo-white" stroke="none" stroke-width="1" fill="none" fill-rule="evenodd">
        <g id="icon---white" transform="translate(46.000000, 40.000000)" fill="#FFFFFF" fill-rule="nonzero">
            <path d="M50,20 C66.542,20 80,33.458 80,50 C80,66.542 66.542,80 50,80 C33.458,80 20,66.542 20,50 C20,33.458 33.458,20 50,20 L50,20 Z M50,10 C27.909,10 10,27.908 10,50 C10,72.092 27.909,90 50,90 C72.092,90 90,72.092 90,50 C90,27.908 72.092,10 50,10 L50,10 Z" id="Shape"></path>
            <path d="M58,54 C56.656,54 56,53.344 56,52 L56,48 C56,46.658 56.656,46 58,46 L71,46 C72.344,46 73,46.656 73,48 L73,50 C73,62.7024237 62.7024237,73 50,73 C43.8240659,73 38.0223649,70.5461724 33.7376378,66.2667043 C32.787,65.314 32.787,64.384 33.736,63.435 L37.979,59.192 C38.928,58.244 39.857,58.242 40.808,59.192 C43.23535,61.6181773 46.5035012,63 50,63 C55.7839629,63 60.6858182,59.2224695 62.3729744,54 L58,54 Z" id="Combined-Shape"></path>
        </g>
        <g id="type---white" transform="translate(155.000000, 40.000000)" fill="#FFFFFF">
            <g id="diamond---white" transform="translate(6.000000, 5.761519)">
                <path d="M10.5514143,1.72878533 L18.2712147,9.44858569 C18.5757524,9.7531234 18.5757524,10.2468766 18.2712147,10.5514143 L10.5514143,18.2712147 C10.2468766,18.5757524 9.7531234,18.5757524 9.44858569,18.2712147 L1.72878533,10.5514143 C1.42424762,10.2468766 1.42424762,9.7531234 1.72878533,9.44858569 L9.44858569,1.72878533 C9.7531234,1.42424762 10.2468766,1.42424762 10.5514143,1.72878533 Z" id="diamond"></path>
            </g>
            <path d="M135.346,29.1695217 C146.77,29.1695217 156.22,38.7875217 156.22,51.2615217 C156.22,63.7355217 146.77,73.3535217 135.346,73.3535217 C128.72428,73.3535217 123.783399,70.6428413 120.60484,66.2336808 L120.60484,87.1715204 C120.60484,88.3895204 119.93284,89.0615204 118.71484,89.0615204 L113.42284,89.0615204 C112.20484,89.0615204 111.53284,88.3895204 111.53284,87.1715204 L111.53284,32.1515204 C111.53284,30.9335204 112.20484,30.2615204 113.42284,30.2615204 L118.71484,30.2615204 C119.93284,30.2615204 120.60484,30.9335204 120.60484,32.1515204 L120.60484,36.2893599 C123.783399,31.8801995 128.72428,29.1695191 135.346,29.1695191 L135.346,29.1695217 Z M133.876,64.7015217 C141.436,64.7015217 147.148,59.0735217 147.148,51.2615217 C147.148,43.4495217 141.436,37.8215217 133.876,37.8215217 C126.316,37.8215217 120.604,43.4495217 120.604,51.2615217 C120.604,59.0735217 126.316,64.7015217 133.876,64.7015217 Z M163.342,72.2615191 C162.124,72.2615191 161.452,71.5895191 161.452,70.3715191 L161.452,32.1515191 C161.452,30.9335191 162.124,30.2615191 163.342,30.2615191 L168.634,30.2615191 C169.852,30.2615191 170.524,30.9335191 170.524,32.1515191 L170.524,70.3715191 C170.524,71.5895191 169.852,72.2615191 168.634,72.2615191 L163.342,72.2615191 Z M209.524,69.9935191 C210.364,71.2535191 209.776,72.2615191 208.264,72.2615191 L202.762,72.2615191 C201.796,72.2615191 201.04,71.8415191 200.494,71.0015191 L192.304,58.1990788 L184.114,71.0015191 C183.568,71.8415191 182.812,72.2615191 181.846,72.2615191 L176.344,72.2615191 C174.832,72.2615191 174.244,71.2535191 175.084,69.9935191 L187.46644,50.6382392 L175.882,32.5295191 C175.042,31.2695191 175.63,30.2615191 177.142,30.2615191 L182.644,30.2615191 C183.61,30.2615191 184.366,30.6815191 184.912,31.5215191 L192.304,43.0765589 L199.696,31.5215191 C200.242,30.6815191 200.998,30.2615191 201.964,30.2615191 L207.466,30.2615191 C208.978,30.2615191 209.566,31.2695191 208.726,32.5295191 L197.14156,50.6382392 L209.524,69.9935191 Z M231.766,29.1695191 C244.324,29.1695191 252.556,39.2495191 252.556,51.3455191 C252.556,52.0595191 252.514,52.7315191 252.472,53.4035191 C252.346,54.6215191 251.59,55.1675191 250.456,55.1675191 L219.15592,55.1675191 C220.53604,62.0513188 225.658359,65.5835191 232.06,65.5835191 C236.05,65.5835191 239.368,63.9035191 241.174,61.5515191 C241.846,60.8375191 242.476,60.4175191 243.484,60.4175191 L248.86,60.3755191 C250.246,60.3755191 251.002,61.2155191 250.456,62.3915191 C247.39,69.2375191 240.502,73.3535191 231.934,73.3535191 C218.536,73.3535191 209.758,63.8615191 209.758,51.2615191 C209.758,38.8295191 218.62,29.1695191 231.766,29.1695191 Z M219.12148,47.6915191 L243.430239,47.6915191 C242.239959,40.5389196 237.131919,37.4435191 231.72484,37.4435191 C224.95108,37.4435191 220.35628,41.4074793 219.12148,47.6915191 Z M259.174,72.2615191 C257.956,72.2615191 257.284,71.5895191 257.284,70.3715191 L257.284,13.6715191 C257.284,12.4535191 257.956,11.7815191 259.174,11.7815191 L264.466,11.7815191 C265.684,11.7815191 266.356,12.4535191 266.356,13.6715191 L266.356,70.3715191 C266.356,71.5895191 265.684,72.2615191 264.466,72.2615191 L259.174,72.2615191 Z M281.668,42.0635191 C281.668,50.5055191 304.978,44.4155191 304.978,60.4595191 C304.978,68.7335191 297.754,73.3535191 288.472,73.3535191 C279.862,73.3535191 273.016,69.2375191 272.092,61.2575191 C271.966,59.9555191 272.722,59.2835191 273.94,59.2835191 L279.148,59.2835191 C280.282,59.2835191 280.744,59.9135191 281.164,60.9635191 C281.878,63.9875191 284.818,65.2055191 288.472,65.2055191 C292.882,65.2055191 295.906,63.6515191 295.906,60.4595191 C295.906,52.1015191 272.596,58.0655191 272.596,42.0635191 C272.596,33.8735191 279.82,29.1695191 288.472,29.1695191 C296.326,29.1695191 303.088,33.2855191 304.012,41.2655191 C304.138,42.5675191 303.382,43.2395191 302.164,43.2395191 L296.956,43.2395191 C295.822,43.2395191 295.36,42.6095191 294.94,41.5175191 C294.268,38.5355191 291.454,37.3175191 288.472,37.3175191 C284.692,37.3175191 281.668,38.8715191 281.668,42.0635191 Z" id="pixels"></path>
            <path d="M18.352,30.2615191 C19.57,30.2615191 20.242,30.9335191 20.242,32.1515191 L20.242,73.9415191 C20.242,84.9035191 15.118,90.3215191 4.912,90.2375191 C3.694,90.2375191 3.022,89.4815191 3.022,88.3055191 L3.022,83.3495191 C3.022,82.1315191 3.694,81.5015191 4.912,81.4175191 C9.154,81.2915191 11.17,79.1075191 11.17,73.9415191 L11.17,32.1515191 C11.17,30.9335191 11.842,30.2615191 13.06,30.2615191 L18.352,30.2615191 Z M47.65,73.3535191 C35.344,73.3535191 25.474,63.7355191 25.474,51.2615191 C25.474,38.7875191 35.344,29.1695191 47.65,29.1695191 C59.956,29.1695191 69.826,38.7875191 69.826,51.2615191 C69.826,63.7355191 59.956,73.3535191 47.65,73.3535191 Z M47.65,64.5335191 C55.042,64.5335191 60.754,58.9055191 60.754,51.2615191 C60.754,43.6175191 55.042,37.9895191 47.65,37.9895191 C40.258,37.9895191 34.546,43.6175191 34.546,51.2615191 C34.546,58.9055191 40.258,64.5335191 47.65,64.5335191 Z M98.41,31.8155191 C98.746,30.7655191 99.502,30.2615191 100.552,30.2615191 L106.306,30.2615191 C107.65,30.2615191 108.322,31.0595191 107.86,32.4035191 L88.918,87.5495191 C88.582,88.5995191 87.784,89.0615191 86.734,89.0615191 L80.98,89.0615191 C79.636,89.0615191 78.964,88.2635191 79.426,86.9195191 L84.634,71.7575191 L69.136,32.4455191 C68.632,31.1435191 69.22,30.2615191 70.606,30.2615191 L76.318,30.2615191 C77.368,30.2615191 78.082,30.7235191 78.46,31.7315191 L89.17,59.1995191 L98.41,31.8155191 Z" id="joy"></path>
            <g id="registered-symbol-white" transform="translate(286.978000, 5.761519)">
                <path d="M15.512,10 C15.512,13.042 13.068,15.512 10,15.512 C6.958,15.512 4.488,13.042 4.488,10 C4.488,6.932 6.958,4.488 10,4.488 C13.068,4.488 15.512,6.932 15.512,10 Z M14.758,10 C14.758,7.348 12.626,5.242 10,5.242 C7.348,5.242 5.216,7.348 5.216,10 C5.216,12.626 7.348,14.784 10,14.784 C12.626,14.784 14.758,12.626 14.758,10 Z M12.548,13.172 L11.508,13.172 L9.87,10.676 L8.726,10.676 L8.726,13.172 L7.894,13.172 L7.894,6.854 L10.468,6.854 C11.534,6.854 12.47,7.608 12.47,8.778 C12.47,10.182 11.222,10.65 10.858,10.65 L12.548,13.172 Z M11.612,8.778 C11.612,8.076 11.014,7.582 10.468,7.582 L8.726,7.582 L8.726,9.922 L10.468,9.922 C11.014,9.922 11.612,9.428 11.612,8.778 Z" id="®"></path>
            </g>
        </g>
    </g>
</svg>