<?xml version="1.0" encoding="UTF-8"?>
<svg width="46px" height="46px" viewBox="0 0 46 46" version="1.1" xmlns="http://www.w3.org/2000/svg" xmlns:xlink="http://www.w3.org/1999/xlink">
    <!-- Generator: Sketch 54.1 (76490) - https://sketchapp.com -->
    <title>Shape</title>
    <desc>Created with Sketch.</desc>
    <g id="Page-1" stroke="none" stroke-width="1" fill="none" fill-rule="evenodd">
        <g id="compress" fill="#FFFFFF" fill-rule="nonzero">
            <path d="M0.475919532,40.3988645 L10.562448,30.312336 L7.21882384,27.1609687 C5.6832064,25.6253513 6.77073229,22.999872 8.94233098,22.999872 L20.317275,22.999872 C21.6634793,22.999872 22.749888,24.0911557 22.749888,25.43736 L22.749888,36.812304 C22.749888,38.9839027 20.1292837,40.0714286 18.5937678,38.5359127 L15.437424,35.187312 L5.35089553,45.2738405 C4.71633616,45.9083998 3.68741153,45.9083998 3.05285216,45.2738405 L0.475919532,42.6969078 C-0.158639844,42.0623485 -0.158639844,41.0334238 0.475919532,40.3988645 L0.475919532,40.3988645 Z M45.0238565,5.60087953 L34.937328,15.687408 L38.2809522,18.8387753 C39.8165696,20.3743927 38.7290437,22.999872 36.557445,22.999872 L25.182501,22.999872 C23.8362967,22.999872 22.749888,21.9085883 22.749888,20.562384 L22.749888,9.18744 C22.749888,7.01584132 25.3704923,5.92831542 26.9060082,7.4638313 L30.062352,10.812432 L40.1488805,0.725903532 C40.7834398,0.091344156 41.8123645,0.091344156 42.4469238,0.725903532 L45.0238565,3.30283616 C45.6584158,3.93739553 45.6584158,4.96632016 45.0238565,5.60087953 Z" id="Shape"></path>
        </g>
    </g>
</svg>