<?xml version="1.0" encoding="UTF-8"?>
<svg width="52px" height="52px" viewBox="0 0 52 52" version="1.1" xmlns="http://www.w3.org/2000/svg" xmlns:xlink="http://www.w3.org/1999/xlink">
    <!-- Generator: Sketch 54.1 (76490) - https://sketchapp.com -->
    <title>Shape</title>
    <desc>Created with Sketch.</desc>
    <g id="Page-1" stroke="none" stroke-width="1" fill="none" fill-rule="evenodd">
        <g id="search" fill="#4CFC4A" fill-rule="nonzero">
            <path d="M51.28881,44.9614974 L41.1630786,34.835766 C40.7060496,34.378737 40.0865214,34.124832 39.4365246,34.124832 L37.781064,34.124832 C40.5841752,30.5396934 42.249792,26.0303406 42.249792,21.124896 C42.249792,9.4554222 32.7943698,0 21.124896,0 C9.4554222,0 0,9.4554222 0,21.124896 C0,32.7943698 9.4554222,42.249792 21.124896,42.249792 C26.0303406,42.249792 30.5396934,40.5841752 34.124832,37.781064 L34.124832,39.4365246 C34.124832,40.0865214 34.378737,40.7060496 34.835766,41.1630786 L44.9614974,51.28881 C45.9161802,52.2434928 47.4599226,52.2434928 48.4044492,51.28881 L51.2786538,48.4146054 C52.2333366,47.4599226 52.2333366,45.9161802 51.28881,44.9614974 Z M21.124896,34.124832 C13.9444626,34.124832 8.12496,28.3154856 8.12496,21.124896 C8.12496,13.9444626 13.9343064,8.12496 21.124896,8.12496 C28.3053294,8.12496 34.124832,13.9343064 34.124832,21.124896 C34.124832,28.3053294 28.3154856,34.124832 21.124896,34.124832 Z" id="Shape"></path>
        </g>
    </g>
</svg>