<?xml version="1.0" encoding="UTF-8"?>
<svg width="50px" height="52px" viewBox="0 0 50 52" version="1.1" xmlns="http://www.w3.org/2000/svg" xmlns:xlink="http://www.w3.org/1999/xlink">
    <!-- Generator: Sketch 54.1 (76490) - https://sketchapp.com -->
    <title>settings</title>
    <desc>Created with Sketch.</desc>
    <g id="Page-1" stroke="none" stroke-width="1" fill="none" fill-rule="evenodd">
        <g id="settings" fill="#FFFFFF" fill-rule="nonzero">
            <path d="M44.9583284,24.070194 L48.1923672,22.2032813 C49.1496906,21.6506825 49.6138289,20.5232427 49.3275257,19.455623 C48.1693126,15.1360895 45.8904645,11.2751086 42.8216671,8.20285805 C42.0416709,7.4220494 40.8335909,7.2638158 39.8778925,7.81580527 L36.6497443,9.68028047 L36.6497441,9.6802803 C35.601086,8.9298204 34.4820759,8.28288874 33.3084559,7.74857106 L33.3084559,4.01586288 L33.3084559,4.01615072 C33.3084559,2.91066866 32.5649591,1.94341248 31.4966609,1.65908967 C27.2553302,0.531040531 22.7504461,0.529618663 18.5038342,1.6589881 C17.4355036,1.94315858 16.6915619,2.91033351 16.6915619,4.01583588 L16.6915619,7.74854406 L16.6915614,7.7485443 C15.5179414,8.28285893 14.3989313,8.92979161 13.3502732,9.68025354 L10.122125,7.81577834 C9.16642656,7.26378887 7.95834657,7.42202247 7.17835041,8.20283112 C4.10955302,11.2750816 1.83070486,15.1359611 0.672491815,19.455596 C0.386188537,20.5232158 0.850326877,21.6506555 1.80765029,22.2032544 L5.04141484,24.0701975 L5.04141412,24.070205 C4.9175095,25.3536338 4.9175095,26.6460204 5.04141437,27.9294492 L1.80737561,29.7963619 C0.850052196,30.3489608 0.385913856,31.4764005 0.672217134,32.5440203 C1.83043018,36.8635537 4.10927834,40.7245347 7.17807573,43.7967852 C7.95807189,44.5775938 9.16615188,44.7358274 10.1218503,44.183838 L13.3499985,42.3193628 L13.349998,42.3193624 C14.3986358,43.0698274 15.5176459,43.7167337 16.6912862,44.2509701 L16.6912862,47.9836783 L16.6912862,47.9833908 C16.6912864,49.0888729 17.434783,50.0561291 18.5030812,50.3404519 C22.7444119,51.468501 27.249296,51.4700244 31.4959079,50.3405534 C32.5642385,50.056383 33.3081802,49.089208 33.3081802,47.9837057 L33.3081802,44.2509975 L33.30818,44.2509976 C34.4817797,43.7166799 35.6007797,43.0697807 36.6494683,42.3193899 L39.8776164,44.1838651 C40.8333148,44.7358546 42.0413948,44.577621 42.821391,43.7968123 C45.8901884,40.7245618 48.1690365,36.8635808 49.3272496,32.5440474 C49.6135529,31.4764276 49.1494145,30.3489879 48.1920911,29.796389 L44.9583367,27.9295474 C45.0822424,26.6447881 45.0822424,25.3549507 44.9583367,24.0701914 L44.9583284,24.070194 Z M39.6081438,30.4705297 L44.0584891,33.0389311 L44.0584889,33.0389317 C43.257962,35.2009633 42.0954478,37.2110479 40.6207167,38.9831524 L36.1693558,36.4127198 C32.9209968,39.1952139 32.4461945,39.4674001 28.4335814,40.8843931 L28.4335814,46.0233287 L28.4335825,46.0233285 C26.1608788,46.4112964 23.8388668,46.4112964 21.5661632,46.0233289 L21.5661632,40.8843933 C17.5540579,39.4676034 17.077529,39.1941985 13.8303887,36.41272 L9.37902785,38.9831526 L9.37902555,38.9831499 C7.90431484,37.211025 6.74180572,35.2009505 5.94125341,33.0389291 L10.3915987,30.4705277 C9.61668063,26.2761187 9.61627438,25.7256526 10.3915987,21.5292123 L5.94125341,18.9608109 C6.73851511,16.8047512 7.90241563,14.7917924 9.37902555,13.0164886 L13.8303864,15.5869213 C17.0787455,12.8044272 17.5536494,12.5321395 21.5661609,11.115248 L21.5661609,5.97641391 L21.5661605,5.97641398 C23.8388641,5.58844613 26.1608761,5.58844613 28.4335798,5.97641384 L28.4335798,11.1153495 C32.445685,12.5321394 32.9222139,12.8055443 36.1693542,15.5870228 L40.6207151,13.0165901 L40.6207156,13.0165907 C42.0954568,14.7887359 43.2579557,16.798851 44.0584877,18.960913 L39.6081424,21.5293144 C40.3831621,25.723825 40.3834667,26.2740879 39.6081424,30.4705282 L39.6081438,30.4705297 Z M24.999872,16.24992 C19.6236875,16.24992 15.24992,20.6236875 15.24992,25.999872 C15.24992,31.3760565 19.6236875,35.749824 24.999872,35.749824 C30.3760565,35.749824 34.749824,31.3760565 34.749824,25.999872 C34.749824,20.6236875 30.3760565,16.24992 24.999872,16.24992 Z M24.999872,30.874848 C22.311729,30.874848 20.124896,28.688015 20.124896,25.999872 C20.124896,23.3118305 22.311729,21.124896 24.999872,21.124896 C27.688015,21.124896 29.874848,23.3118305 29.874848,25.999872 C29.874848,28.688015 27.688015,30.874848 24.999872,30.874848 Z" id="Shape"></path>
        </g>
    </g>
</svg>